{
  "accessors": [
    {
      "bufferView": 2,
      "componentType": 5126,
      "count": 341,
      "max": [
        0.816474974155426,
        0.8363190293312073,
        2.3943920135498047
      ],
      "min": [
        -0.816474974155426,
        -0.7966319918632507,
        -0.40628400444984436
      ],
      "type": "VEC3"
    },
    {
      "bufferView": 2,
      "byteOffset": 4092,
      "componentType": 5126,
      "count": 341,
      "max": [
        0.9728782176971436,
        0.9728653430938721,
        1.0
      ],
      "min": [
        -0.972865104675293,
        -0.9729174971580505,
        -1.0
      ],
      "type": "VEC3"
    },
    {
      "bufferView": 3,
      "componentType": 5126,
      "count": 341,
      "max": [
        0.9878934025764465,
        0.9990930557250977,
        0.8111795783042908,
        1.0
      ],
      "min": [
        -0.9742611646652222,
        -0.9859017133712769,
        -0.8115569353103638,
        1.0
      ],
      "type": "VEC4"
    },
    {
      "bufferView": 1,
      "componentType": 5126,
      "count": 341,
      "max": [
        0.9311659932136536,
        0.9812049865722656
      ],
      "min": [
        0.0193099994212389,
        0.23724399507045746
      ],
      "type": "VEC2"
    },
    {
      "bufferView": 0,
      "componentType": 5125,
      "count": 1326,
      "type": "SCALAR"
    },
    {
      "bufferView": 2,
      "byteOffset": 8184,
      "componentType": 5126,
      "count": 256,
      "max": [
        0.8551329970359802,
        0.8749780058860779,
        2.3726580142974854
      ],
      "min": [
        -0.8551329970359802,
        -0.8352890014648438,
        -0.17686399817466736
      ],
      "type": "VEC3"
    },
    {
      "bufferView": 2,
      "byteOffset": 11256,
      "componentType": 5126,
      "count": 256,
      "max": [
        0.9983075261116028,
        0.9951472282409668,
        0.9989998936653137
      ],
      "min": [
        -0.9983075261116028,
        -0.9966192245483398,
        -0.9326068758964539
      ],
      "type": "VEC3"
    },
    {
      "bufferView": 3,
      "byteOffset": 5456,
      "componentType": 5126,
      "count": 256,
      "max": [
        0.9999287128448486,
        0.9997807741165161,
        0.9777535796165466,
        1.0
      ],
      "min": [
        -0.9994390606880188,
        -0.999995768070221,
        -0.954830527305603,
        1.0
      ],
      "type": "VEC4"
    },
    {
      "bufferView": 1,
      "byteOffset": 2728,
      "componentType": 5126,
      "count": 256,
      "max": [
        0.803725004196167,
        0.861545979976654
      ],
      "min": [
        0.01879500038921833,
        0.01879500038921833
      ],
      "type": "VEC2"
    },
    {
      "bufferView": 0,
      "byteOffset": 5304,
      "componentType": 5125,
      "count": 1164,
      "type": "SCALAR"
    }
  ],
  "asset": {
    "extras": {
      "author": "Myers2860 (https://sketchfab.com/myers2860)",
      "license": "CC-BY-4.0 (http://creativecommons.org/licenses/by/4.0/)",
      "source": "https://sketchfab.com/3d-models/low-poly-soda-can-6e3aafa5e70e48a3a4c2ac7bf7f6c1f1",
      "title": "Low Poly Soda Can"
    },
    "generator": "Sketchfab-17.15.0",
    "version": "2.0"
  },
  "bufferViews": [
    {
      "buffer": 0,
      "byteLength": 9960,
      "name": "floatBufferViews",
      "target": 34963
    },
    {
      "buffer": 0,
      "byteLength": 4776,
      "byteOffset": 9960,
      "byteStride": 8,
      "name": "floatBufferViews",
      "target": 34962
    },
    {
      "buffer": 0,
      "byteLength": 14328,
      "byteOffset": 14736,
      "byteStride": 12,
      "name": "floatBufferViews",
      "target": 34962
    },
    {
      "buffer": 0,
      "byteLength": 9552,
      "byteOffset": 29064,
      "byteStride": 16,
      "name": "floatBufferViews",
      "target": 34962
    }
  ],
  "buffers": [
    {
      "byteLength": 38616,
      "uri": "scene.bin"
    }
  ],
  "images": [
    {
      "uri": "textures/Metal_baseColor.jpeg"
    },
    {
      "uri": "textures/Metal_metallicRoughness.png"
    },
    {
      "uri": "textures/Metal_normal.png"
    },
    {
      "uri": "textures/Decal_001_baseColor.jpeg"
    },
    {
      "uri": "textures/Decal_001_metallicRoughness.png"
    },
    {
      "uri": "textures/Decal_001_normal.png"
    }
  ],
  "materials": [
    {
      "doubleSided": true,
      "name": "Metal",
      "normalTexture": {
        "index": 2
      },
      "pbrMetallicRoughness": {
        "baseColorTexture": {
          "index": 0
        },
        "metallicRoughnessTexture": {
          "index": 1
        }
      }
    },
    {
      "doubleSided": true,
      "name": "Decal_001",
      "normalTexture": {
        "index": 5
      },
      "pbrMetallicRoughness": {
        "baseColorTexture": {
          "index": 3
        },
        "metallicRoughnessTexture": {
          "index": 4
        }
      }
    }
  ],
  "meshes": [
    {
      "name": "defaultMaterial",
      "primitives": [
        {
          "attributes": {
            "NORMAL": 1,
            "POSITION": 0,
            "TANGENT": 2,
            "TEXCOORD_0": 3
          },
          "indices": 4,
          "material": 0,
          "mode": 4
        }
      ]
    },
    {
      "name": "defaultMaterial",
      "primitives": [
        {
          "attributes": {
            "NORMAL": 6,
            "POSITION": 5,
            "TANGENT": 7,
            "TEXCOORD_0": 8
          },
          "indices": 9,
          "material": 1,
          "mode": 4
        }
      ]
    }
  ],
  "nodes": [
    {
      "children": [
        1
      ],
      "matrix": [
        1.0,
        0.0,
        0.0,
        0.0,
        0.0,
        2.220446049250313e-16,
        -1.0,
        0.0,
        0.0,
        1.0,
        2.220446049250313e-16,
        0.0,
        0.0,
        0.0,
        0.0,
        1.0
      ],
      "name": "Sketchfab_model"
    },
    {
      "children": [
        2
      ],
      "matrix": [
        1.0,
        0.0,
        0.0,
        0.0,
        0.0,
        -4.371139006309477e-08,
        0.999999999999999,
        0.0,
        0.0,
        -0.999999999999999,
        -4.371139006309477e-08,
        0.0,
        0.0,
        0.0,
        0.0,
        1.0
      ],
      "name": "Collada visual scene group"
    },
    {
      "children": [
        3,
        4
      ],
      "matrix": [
        100.0,
        0.0,
        0.0,
        0.0,
        0.0,
        -1.6e-05,
        -100.0,
        0.0,
        0.0,
        100.0,
        -1.6e-05,
        0.0,
        0.0,
        0.0,
        0.0,
        1.0
      ],
      "name": "Cylinder.001"
    },
    {
      "mesh": 0,
      "name": "defaultMaterial"
    },
    {
      "mesh": 1,
      "name": "defaultMaterial"
    }
  ],
  "samplers": [
    {
      "magFilter": 9729,
      "minFilter": 9987,
      "wrapS": 10497,
      "wrapT": 10497
    }
  ],
  "scene": 0,
  "scenes": [
    {
      "name": "Sketchfab_Scene",
      "nodes": [
        0
      ]
    }
  ],
  "textures": [
    {
      "sampler": 0,
      "source": 0
    },
    {
      "sampler": 0,
      "source": 1
    },
    {
      "sampler": 0,
      "source": 2
    },
    {
      "sampler": 0,
      "source": 3
    },
    {
      "sampler": 0,
      "source": 4
    },
    {
      "sampler": 0,
      "source": 5
    }
  ]
}
